<svg width="280" height="280" viewBox="0 0 280 280" fill="none" xmlns="http://www.w3.org/2000/svg">
<path d="M242.748 2.8875C241.085 1.05 238.74 0 236.255 0H43.7555C41.288 0 38.9255 1.05 37.263 2.8875C35.618 4.7075 34.7955 7.1575 35.0405 9.625L61.2905 272.125C61.7455 276.605 65.508 280 70.0055 280H210.005C214.503 280 218.265 276.605 218.703 272.125L244.953 9.625C245.215 7.1575 244.41 4.7075 242.748 2.8875Z" fill="#ECEFF1"/>
<path d="M219.455 89.25L202.13 262.5H77.8805L58.4555 68.775C80.3305 61.775 113.58 57.05 140.005 78.75C165.555 99.75 197.755 95.9 219.455 89.25Z" fill="#2196F3"/>
<path d="M166.911 179.289C166.911 184.247 165.763 188.422 163.466 191.812C161.169 195.203 158.034 197.773 154.06 199.523C150.122 201.237 145.674 202.094 140.716 202.094C135.758 202.094 131.292 201.237 127.318 199.523C123.344 197.773 120.208 195.203 117.911 191.812C115.614 188.422 114.466 184.247 114.466 179.289C114.466 176.008 115.104 173.036 116.38 170.375C117.656 167.677 119.461 165.362 121.794 163.43C124.164 161.461 126.935 159.948 130.107 158.891C133.315 157.833 136.815 157.305 140.607 157.305C145.638 157.305 150.14 158.234 154.114 160.094C158.088 161.953 161.206 164.523 163.466 167.805C165.763 171.086 166.911 174.914 166.911 179.289ZM153.677 178.633C153.677 175.971 153.13 173.638 152.036 171.633C150.943 169.628 149.411 168.078 147.443 166.984C145.474 165.891 143.195 165.344 140.607 165.344C137.982 165.344 135.703 165.891 133.771 166.984C131.838 168.078 130.325 169.628 129.232 171.633C128.174 173.638 127.646 175.971 127.646 178.633C127.646 181.331 128.174 183.664 129.232 185.633C130.289 187.565 131.802 189.042 133.771 190.062C135.739 191.083 138.055 191.594 140.716 191.594C143.377 191.594 145.674 191.083 147.607 190.062C149.539 189.042 151.034 187.565 152.091 185.633C153.148 183.664 153.677 181.331 153.677 178.633ZM165.107 142.32C165.107 146.294 164.049 149.831 161.935 152.93C159.857 156.029 156.976 158.471 153.294 160.258C149.612 162.008 145.419 162.883 140.716 162.883C135.976 162.883 131.747 162.008 128.029 160.258C124.346 158.471 121.448 156.029 119.333 152.93C117.255 149.831 116.216 146.294 116.216 142.32C116.216 137.581 117.255 133.589 119.333 130.344C121.448 127.062 124.346 124.565 128.029 122.852C131.711 121.138 135.922 120.281 140.661 120.281C145.401 120.281 149.612 121.138 153.294 122.852C156.976 124.565 159.857 127.062 161.935 130.344C164.049 133.589 165.107 137.581 165.107 142.32ZM151.927 142.758C151.927 140.388 151.453 138.31 150.505 136.523C149.594 134.701 148.299 133.279 146.622 132.258C144.945 131.237 142.958 130.727 140.661 130.727C138.364 130.727 136.377 131.219 134.7 132.203C133.023 133.188 131.729 134.573 130.818 136.359C129.906 138.146 129.45 140.279 129.45 142.758C129.45 145.201 129.906 147.333 130.818 149.156C131.729 150.943 133.023 152.346 134.7 153.367C136.414 154.388 138.419 154.898 140.716 154.898C143.013 154.898 145 154.388 146.677 153.367C148.354 152.346 149.648 150.943 150.56 149.156C151.471 147.333 151.927 145.201 151.927 142.758Z" fill="black"/>
</svg>
